PathFileType	4	(X/Y/Z)	C:\Users\italobelli\Desktop\GitHub\PTbot_officialCBL\Personal_Results\FLX02_noisy1.trc
DataRate	CameraRate	NumFrames	NumMarkers	Units	OrigDataRate	OrigDataStartFrame	OrigNumFrames
106.125000	106.125000	38	9	m	106.125000	319	850
Frame#	Time		gu		centelbow		EpL		centpxt8		centijc7		ij		ts		aa		ai
			X1	Y1	Z1	X2	Y2	Z2	X3	Y3	Z3	X4	Y4	Z4	X5	Y5	Z5	X6	Y6	Z6	X7	Y7	Z7	X8	Y8	Z8	X9	Y9	Z9

319	2.9965	-0.091476	0.055919	0.11174	0.051497	0.22229	0.20223	0.026489	0.24114	0.19456	-0.046816	-0.15316	-0.008669	-0.046816	0.031938	-0.008669	0	0	0	-0.15096	-0.016583	0.059823	-0.1188	0.078939	0.12363	-0.12285	-0.079708	0.14988
320	3.0059	-0.091672	0.056036	0.11147	0.049982	0.22385	0.2017	0.02487	0.24249	0.19385	-0.046816	-0.15316	-0.008669	-0.046816	0.031938	-0.008669	0	0	0	-0.15086	-0.016743	0.059761	-0.11911	0.079044	0.12329	-0.12264	-0.079463	0.15007
321	3.0153	-0.091868	0.056152	0.1112	0.048458	0.2254	0.20116	0.023244	0.24382	0.19314	-0.046816	-0.15316	-0.008669	-0.046816	0.031938	-0.008669	0	0	0	-0.15074	-0.016905	0.059703	-0.11943	0.079146	0.12296	-0.12241	-0.079216	0.15026
322	3.0247	-0.092065	0.05627	0.11093	0.046921	0.22693	0.20061	0.021607	0.24514	0.19242	-0.046816	-0.15316	-0.008669	-0.046816	0.031938	-0.008669	0	0	0	-0.15061	-0.017071	0.059647	-0.11975	0.079246	0.12263	-0.12217	-0.078968	0.15046
323	3.0342	-0.092261	0.056388	0.11066	0.045372	0.22845	0.20005	0.019962	0.24645	0.1917	-0.046816	-0.15316	-0.008669	-0.046816	0.031938	-0.008669	0	0	0	-0.15046	-0.01724	0.059594	-0.12006	0.079345	0.1223	-0.12192	-0.07872	0.15065
324	3.0436	-0.092458	0.056507	0.11039	0.043814	0.22995	0.19949	0.018308	0.24775	0.19097	-0.046816	-0.15316	-0.008669	-0.046816	0.031938	-0.008669	0	0	0	-0.15029	-0.017412	0.059544	-0.12039	0.079442	0.12197	-0.12165	-0.07847	0.15085
325	3.053	-0.092655	0.056626	0.11013	0.042246	0.23144	0.19892	0.016648	0.24903	0.19024	-0.046816	-0.15316	-0.008669	-0.046816	0.031938	-0.008669	0	0	0	-0.15011	-0.017587	0.059497	-0.12071	0.079537	0.12164	-0.12137	-0.07822	0.15104
326	3.0624	-0.092852	0.056745	0.10987	0.04067	0.23291	0.19835	0.014983	0.2503	0.18951	-0.046816	-0.15316	-0.008669	-0.046816	0.031938	-0.008669	0	0	0	-0.14992	-0.017765	0.059452	-0.12104	0.07963	0.12131	-0.12108	-0.077969	0.15124
327	3.0718	-0.093049	0.056865	0.1096	0.039087	0.23437	0.19777	0.013313	0.25155	0.18878	-0.046816	-0.15316	-0.008669	-0.046816	0.031938	-0.008669	0	0	0	-0.14971	-0.017944	0.059409	-0.12136	0.079722	0.12098	-0.12077	-0.077718	0.15144
328	3.0813	-0.093245	0.056985	0.10935	0.037499	0.23581	0.19719	0.011639	0.25279	0.18804	-0.046816	-0.15316	-0.008669	-0.046816	0.031938	-0.008669	0	0	0	-0.14948	-0.018126	0.059368	-0.12169	0.079812	0.12066	-0.12046	-0.077466	0.15164
329	3.0907	-0.09344	0.057105	0.10909	0.035906	0.23724	0.1966	0.0099635	0.25402	0.1873	-0.046816	-0.15316	-0.008669	-0.046816	0.031938	-0.008669	0	0	0	-0.14925	-0.018309	0.059329	-0.12202	0.079901	0.12033	-0.12014	-0.077215	0.15184
330	3.1001	-0.093635	0.057225	0.10884	0.034309	0.23865	0.19601	0.0082866	0.25524	0.18657	-0.046816	-0.15316	-0.008669	-0.046816	0.031938	-0.008669	0	0	0	-0.149	-0.018494	0.059293	-0.12235	0.079988	0.12001	-0.1198	-0.076963	0.15204
331	3.1095	-0.093829	0.057344	0.10859	0.032709	0.24005	0.19542	0.0066097	0.25644	0.18583	-0.046816	-0.15316	-0.008669	-0.046816	0.031938	-0.008669	0	0	0	-0.14874	-0.018681	0.059258	-0.12268	0.080073	0.11969	-0.11946	-0.076712	0.15224
332	3.119	-0.094022	0.057464	0.10834	0.031109	0.24143	0.19483	0.0049338	0.25762	0.1851	-0.046816	-0.15316	-0.008669	-0.046816	0.031938	-0.008669	0	0	0	-0.14846	-0.018868	0.059225	-0.12301	0.080157	0.11937	-0.11911	-0.07646	0.15244
333	3.1284	-0.094213	0.057583	0.10809	0.029508	0.24279	0.19424	0.00326	0.2588	0.18436	-0.046816	-0.15316	-0.008669	-0.046816	0.031938	-0.008669	0	0	0	-0.14818	-0.019057	0.059194	-0.12335	0.08024	0.11906	-0.11875	-0.07621	0.15264
334	3.1378	-0.094404	0.057702	0.10785	0.027908	0.24414	0.19365	0.0015896	0.25995	0.18364	-0.046816	-0.15316	-0.008669	-0.046816	0.031938	-0.008669	0	0	0	-0.14789	-0.019246	0.059164	-0.12368	0.080321	0.11874	-0.11839	-0.075959	0.15284
335	3.1472	-0.094592	0.05782	0.10761	0.02631	0.24547	0.19307	-7.647e-05	0.2611	0.18291	-0.046816	-0.15316	-0.008669	-0.046816	0.031938	-0.008669	0	0	0	-0.14759	-0.019436	0.059136	-0.12401	0.080401	0.11843	-0.11802	-0.075709	0.15304
336	3.1567	-0.094779	0.057937	0.10737	0.024715	0.24679	0.19248	-0.001737	0.26223	0.18219	-0.046816	-0.15316	-0.008669	-0.046816	0.031938	-0.008669	0	0	0	-0.14729	-0.019626	0.059109	-0.12433	0.080479	0.11812	-0.11765	-0.075461	0.15323
337	3.1661	-0.094965	0.058054	0.10714	0.023124	0.24809	0.1919	-0.0033909	0.26334	0.18147	-0.046816	-0.15316	-0.008669	-0.046816	0.031938	-0.008669	0	0	0	-0.14697	-0.019816	0.059083	-0.12466	0.080556	0.11781	-0.11727	-0.075213	0.15343
338	3.1755	-0.095148	0.05817	0.10691	0.021538	0.24937	0.19132	-0.0050371	0.26444	0.18076	-0.046816	-0.15316	-0.008669	-0.046816	0.031938	-0.008669	0	0	0	-0.14665	-0.020006	0.059058	-0.12499	0.080632	0.11751	-0.11688	-0.074966	0.15363
339	3.1849	-0.095329	0.058285	0.10668	0.019959	0.25063	0.19074	-0.0066745	0.26552	0.18006	-0.046816	-0.15316	-0.008669	-0.046816	0.031938	-0.008669	0	0	0	-0.14632	-0.020195	0.059035	-0.12531	0.080707	0.11721	-0.11649	-0.07472	0.15382
340	3.1943	-0.095508	0.058399	0.10646	0.018388	0.25187	0.19017	-0.0083019	0.26659	0.17936	-0.046816	-0.15316	-0.008669	-0.046816	0.031938	-0.008669	0	0	0	-0.14599	-0.020384	0.059012	-0.12563	0.08078	0.11691	-0.1161	-0.074476	0.15401
341	3.2038	-0.095684	0.058511	0.10623	0.016825	0.2531	0.18961	-0.0099183	0.26765	0.17868	-0.046816	-0.15316	-0.008669	-0.046816	0.031938	-0.008669	0	0	0	-0.14565	-0.020572	0.05899	-0.12595	0.080852	0.11662	-0.11571	-0.074233	0.1542
342	3.2132	-0.095858	0.058623	0.10602	0.015272	0.25431	0.18905	-0.011522	0.26869	0.178	-0.046816	-0.15316	-0.008669	-0.046816	0.031938	-0.008669	0	0	0	-0.14531	-0.020759	0.058969	-0.12627	0.080924	0.11632	-0.11532	-0.073991	0.15439
343	3.2226	-0.09603	0.058733	0.1058	0.01373	0.2555	0.1885	-0.013113	0.26971	0.17733	-0.046816	-0.15316	-0.008669	-0.046816	0.031938	-0.008669	0	0	0	-0.14496	-0.020945	0.058948	-0.12658	0.080993	0.11604	-0.11492	-0.073752	0.15458
344	3.232	-0.096198	0.058842	0.10559	0.012199	0.25667	0.18795	-0.01469	0.27072	0.17667	-0.046816	-0.15316	-0.008669	-0.046816	0.031938	-0.008669	0	0	0	-0.14462	-0.021129	0.058928	-0.12689	0.081062	0.11575	-0.11453	-0.073514	0.15477
345	3.2415	-0.096363	0.05895	0.10538	0.010682	0.25783	0.18742	-0.016251	0.27171	0.17602	-0.046816	-0.15316	-0.008669	-0.046816	0.031938	-0.008669	0	0	0	-0.14427	-0.021311	0.058908	-0.1272	0.08113	0.11547	-0.11413	-0.073278	0.15495
346	3.2509	-0.096525	0.059055	0.10518	0.0091792	0.25896	0.18689	-0.017795	0.27268	0.17538	-0.046816	-0.15316	-0.008669	-0.046816	0.031938	-0.008669	0	0	0	-0.14392	-0.021492	0.058888	-0.1275	0.081197	0.11519	-0.11374	-0.073045	0.15513
347	3.2603	-0.096684	0.059159	0.10498	0.0076916	0.26008	0.18638	-0.019322	0.27364	0.17476	-0.046816	-0.15316	-0.008669	-0.046816	0.031938	-0.008669	0	0	0	-0.14356	-0.02167	0.058869	-0.1278	0.081263	0.11492	-0.11335	-0.072814	0.15531
348	3.2697	-0.096839	0.059262	0.10478	0.0062205	0.26118	0.18588	-0.02083	0.27459	0.17415	-0.046816	-0.15316	-0.008669	-0.046816	0.031938	-0.008669	0	0	0	-0.14321	-0.021846	0.05885	-0.1281	0.081328	0.11465	-0.11296	-0.072585	0.15549
349	3.2792	-0.09699	0.059362	0.10459	0.0047669	0.26225	0.18538	-0.022318	0.27551	0.17355	-0.046816	-0.15316	-0.008669	-0.046816	0.031938	-0.008669	0	0	0	-0.14286	-0.022019	0.05883	-0.12839	0.081391	0.11438	-0.11258	-0.072359	0.15566
350	3.2886	-0.097138	0.05946	0.1044	0.0033319	0.26331	0.1849	-0.023784	0.27642	0.17297	-0.046816	-0.15316	-0.008669	-0.046816	0.031938	-0.008669	0	0	0	-0.14251	-0.022189	0.05881	-0.12867	0.081455	0.11412	-0.1122	-0.072135	0.15583
351	3.298	-0.097282	0.059556	0.10421	0.0019167	0.26435	0.18444	-0.025229	0.27732	0.1724	-0.046816	-0.15316	-0.008669	-0.046816	0.031938	-0.008669	0	0	0	-0.14217	-0.022357	0.05879	-0.12895	0.081517	0.11386	-0.11182	-0.071914	0.156
352	3.3074	-0.097421	0.05965	0.10403	0.00052248	0.26537	0.18398	-0.02665	0.27819	0.17185	-0.046816	-0.15316	-0.008669	-0.046816	0.031938	-0.008669	0	0	0	-0.14182	-0.022521	0.05877	-0.12922	0.081578	0.11361	-0.11145	-0.071697	0.15616
353	3.3168	-0.097557	0.059742	0.10386	-0.00084978	0.26637	0.18354	-0.028047	0.27905	0.17132	-0.046816	-0.15316	-0.008669	-0.046816	0.031938	-0.008669	0	0	0	-0.14148	-0.022681	0.058749	-0.12949	0.081639	0.11336	-0.11108	-0.071482	0.15632
354	3.3263	-0.097688	0.059831	0.10368	-0.0021989	0.26735	0.18312	-0.029419	0.2799	0.17081	-0.046816	-0.15316	-0.008669	-0.046816	0.031938	-0.008669	0	0	0	-0.14114	-0.022838	0.058728	-0.12975	0.081698	0.11312	-0.11072	-0.07127	0.15647
355	3.3357	-0.097814	0.059918	0.10351	-0.0035238	0.2683	0.18271	-0.030763	0.28072	0.17031	-0.046816	-0.15316	-0.008669	-0.046816	0.031938	-0.008669	0	0	0	-0.14081	-0.022991	0.058705	-0.13001	0.081758	0.11288	-0.11037	-0.071062	0.15663
356	3.3451	-0.097936	0.060003	0.10335	-0.0048234	0.26924	0.18232	-0.03208	0.28153	0.16983	-0.046816	-0.15316	-0.008669	-0.046816	0.031938	-0.008669	0	0	0	-0.14049	-0.02314	0.058682	-0.13026	0.081816	0.11265	-0.11002	-0.070858	0.15677
